<?xml version="1.0" encoding="UTF-8"?>
<svg width="480px" height="480px" viewBox="0 0 480 480" version="1.1" xmlns="http://www.w3.org/2000/svg" xmlns:xlink="http://www.w3.org/1999/xlink">
    <!-- Generator: Sketch 49.1 (51147) - http://www.bohemiancoding.com/sketch -->
    <title>linkit</title>
    <desc>Created with Sketch.</desc>
    <defs></defs>
    <g id="Page-1" stroke="none" stroke-width="1" fill="none" fill-rule="evenodd">
        <g id="linkit" fill-rule="nonzero">
            <path d="M240,480 C478.15,480 480,372.55 480,240 C480,107.45 478.15,0 240,0 C1.85,0 0,107.45 0,240 C0,372.55 1.85,480 240,480 Z" id="Shape" fill="#5BD0FF"></path>
            <g id="links" transform="translate(240.500000, 240.500000) rotate(-270.000000) translate(-240.500000, -240.500000) translate(80.000000, 80.000000)">
                <path d="M241.3,320.9 C220,320.9 200,312.6 185,297.6 L168.3,280.9 C153.3,265.9 145,245.8 145,224.6 C145,203.3 153.3,183.3 168.3,168.3 C183.3,153.3 203.4,145 224.6,145 C245.9,145 265.9,153.3 280.9,168.3 L297.6,185 C328.7,216.1 328.7,266.6 297.6,297.7 C282.6,312.6 262.6,320.9 241.3,320.9 Z M224.7,180.2 C212.9,180.2 201.7,184.8 193.3,193.2 C184.9,201.6 180.3,212.7 180.3,224.6 C180.3,236.4 184.9,247.6 193.3,256 L210,272.7 C218.4,281.1 229.5,285.7 241.4,285.7 C253.2,285.7 264.4,281.1 272.8,272.7 C290.1,255.4 290.1,227.3 272.8,210 L256.1,193.3 C247.6,184.8 236.5,180.2 224.7,180.2 Z" id="Shape" fill="#FFFFFF"></path>
                <path d="M96.325,176 C75.025,176 55.025,167.7 40.025,152.7 L23.325,136 C-7.775,104.9 -7.775,54.4 23.325,23.3 C38.325,8.3 58.425,0 79.625,0 C100.925,0 120.925,8.3 135.925,23.3 L152.625,40 C183.725,71.1 183.725,121.6 152.625,152.7 C137.625,167.7 117.625,176 96.325,176 Z M79.725,35.3 C67.925,35.3 56.725,39.9 48.325,48.3 C31.025,65.6 31.025,93.7 48.325,111 L65.025,127.7 C73.425,136.1 84.525,140.7 96.425,140.7 C108.225,140.7 119.425,136.1 127.825,127.7 C145.125,110.4 145.125,82.3 127.825,65 L111.125,48.3 C102.725,39.9 91.525,35.3 79.725,35.3 Z" id="Shape" fill="#FFFFFF"></path>
                <path d="M214.975,232.675 C210.475,232.675 205.975,230.975 202.475,227.475 L94.175,119.175 C87.275,112.275 87.275,101.075 94.175,94.175 C101.075,87.275 112.275,87.275 119.175,94.175 L227.475,202.475 C234.375,209.375 234.375,220.575 227.475,227.475 C223.975,230.975 219.475,232.675 214.975,232.675 Z" id="Shape" fill="#289DCC"></path>
            </g>
        </g>
    </g>
</svg>