<?xml version="1.0" encoding="UTF-8"?>
<svg width="1022px" height="1022px" viewBox="0 0 1022 1022" version="1.1" xmlns="http://www.w3.org/2000/svg" xmlns:xlink="http://www.w3.org/1999/xlink">
    <!-- Generator: Sketch 51.3 (57544) - http://www.bohemiancoding.com/sketch -->
    <title>icon</title>
    <desc>Created with Sketch.</desc>
    <defs></defs>
    <g id="icon" stroke="none" stroke-width="1" fill="none" fill-rule="evenodd">
        <g fill-rule="nonzero">
            <path d="M0,511 C0,928.495059 3.94377067,1022 511,1022 C1018.05623,1022 1022,928.495059 1022,511 C1022,93.5049407 1018.05623,0 511,0 C3.94377067,0 0,93.5049407 0,511 Z" id="background" fill="#2296F3"></path>
            <g transform="translate(212.000000, 209.000000)">
                <path d="M534.540541,22 C546.522601,22 556.927889,26.09902 565.756757,34.297297 C574.585625,42.495574 579,52.585507 579,64.567568 C579,76.549628 574.585625,86.954916 565.756757,95.783784 L498.594595,163.891892 L509.945946,176.189189 C533.910068,200.153311 545.891892,228.846689 545.891892,262.27027 C545.891892,295.693851 533.910068,324.38723 509.945946,348.351351 L346.297297,512.945946 C322.333176,536.910032 293.324443,548.891892 259.27027,548.891892 C225.846689,548.891892 197.153311,536.910032 173.189189,512.945946 L160.891892,500.648649 L92.783784,568.756757 C83.954916,577.58563 73.864924,582 62.513514,582 C50.531476,582 40.126166,577.58563 31.297297,568.756757 C23.099058,559.927889 19,549.522578 19,537.540541 C19,525.558503 23.099058,515.468512 31.297297,507.27027 L99.405405,440.108108 L87.108108,427.810811 C63.77466,404.477399 52.108108,375.468666 52.108108,340.783784 C52.108108,306.729611 63.77466,278.036115 87.108108,254.702703 L251.702703,90.108108 C275.036115,66.774696 303.88723,55.108108 338.256757,55.108108 C372.626284,55.108108 401.477399,66.774696 424.810811,90.108108 L437.108108,102.405405 L504.27027,34.297297 C512.468547,26.09902 522.55848,22 534.540541,22 Z" fill="#FFFFFF"></path>
                <path d="M448.837081,287.299103 C455.141296,280.994887 458.293286,272.48442 458.293286,261.767347 C458.293286,251.680649 455.141296,243.485429 448.837081,237.181213 L436.544013,224.888145 L408.175396,253.256762 C399.979939,261.452219 389.578231,265.54983 376.969918,265.54983 C364.991978,265.54983 354.905517,261.452219 346.71006,253.256762 C338.514603,245.061305 334.416992,234.974843 334.416992,222.996904 C334.416992,211.018965 338.514603,200.617257 346.71006,191.791426 L375.078677,163.422809 L362.785609,151.129741 C355.851019,144.195151 347.65568,140.727915 338.199475,140.727915 C328.112777,140.727915 319.60231,144.195151 312.667719,151.129741 L148.129741,315.667719 C141.195151,322.60231 137.727915,330.797648 137.727915,340.253854 C137.727915,350.340552 141.195151,358.851019 148.129741,365.785609 L160.422809,378.078677 L188.791426,349.71006 C197.617257,340.884228 208.018965,336.471372 219.996904,336.471372 C231.344351,336.471372 241.430931,340.884228 250.256762,349.71006 C258.452219,357.905517 262.54983,367.991978 262.54983,379.969918 C262.54983,391.947857 258.452219,402.349565 250.256762,411.175396 L221.888145,439.544013 L234.181213,450.89146 C241.115803,457.82605 249.311142,461.293286 258.767347,461.293286 C268.854045,461.293286 277.364512,457.82605 284.299103,450.89146 L448.837081,287.299103 Z" id="Path" fill="#2296F3"></path>
                <rect id="Rectangle-3" fill="#A5D1F4" transform="translate(457.127960, 143.872040) rotate(-45.000000) translate(-457.127960, -143.872040) " x="301.038323" y="97.2029928" width="312.179273" height="93.3380951" rx="40"></rect>
                <rect id="Rectangle-3" fill="#A5D1F4" transform="translate(143.372040, 457.372040) rotate(-45.000000) translate(-143.372040, -457.372040) " x="-12.717596" y="410.702993" width="312.179273" height="93.3380951" rx="40"></rect>
            </g>
        </g>
    </g>
</svg>